<svg width="16" height="16" viewBox="0 0 16 16" fill="none" xmlns="http://www.w3.org/2000/svg">
<g clip-path="url(#clip0_72_2805)">
<path d="M6.72065 7.23967C6.75398 7.01967 6.82732 6.82634 6.92065 6.65967C7.01398 6.49301 7.14732 6.35301 7.31398 6.24634C7.47398 6.14634 7.67398 6.09967 7.92065 6.09301C8.07398 6.09967 8.21398 6.12634 8.34065 6.17968C8.47398 6.23968 8.59398 6.31967 8.68732 6.41967C8.78065 6.51967 8.85398 6.63967 8.91398 6.77301C8.97398 6.90634 9.00065 7.05301 9.00732 7.19967H10.2007C10.1873 6.88634 10.1273 6.59967 10.014 6.33967C9.90065 6.07967 9.74732 5.85301 9.54732 5.66634C9.34732 5.47967 9.10732 5.33301 8.82732 5.22634C8.54732 5.11967 8.24065 5.07301 7.90065 5.07301C7.46732 5.07301 7.08732 5.14634 6.76732 5.29967C6.44732 5.45301 6.18065 5.65301 5.96732 5.91301C5.75398 6.17301 5.59398 6.47301 5.49398 6.81967C5.39398 7.16634 5.33398 7.52634 5.33398 7.91301V8.09301C5.33398 8.47967 5.38732 8.83967 5.48732 9.18634C5.58732 9.53301 5.74732 9.83301 5.96065 10.0863C6.17398 10.3397 6.44065 10.5463 6.76065 10.693C7.08065 10.8397 7.46065 10.9197 7.89398 10.9197C8.20732 10.9197 8.50065 10.8663 8.77398 10.7663C9.04732 10.6663 9.28732 10.5263 9.49398 10.3463C9.70065 10.1663 9.86732 9.95967 9.98732 9.71968C10.1073 9.47967 10.1807 9.22634 10.1873 8.95301H8.99398C8.98732 9.09301 8.95398 9.21968 8.89398 9.33967C8.83398 9.45967 8.75398 9.55968 8.65398 9.64634C8.55398 9.73301 8.44065 9.79967 8.30732 9.84634C8.18065 9.89301 8.04732 9.90634 7.90732 9.91301C7.66732 9.90634 7.46732 9.85968 7.31398 9.75968C7.14732 9.65301 7.01398 9.51301 6.92065 9.34634C6.82732 9.17968 6.75398 8.97967 6.72065 8.75968C6.68732 8.53967 6.66732 8.31301 6.66732 8.09301V7.91301C6.66732 7.67967 6.68732 7.45967 6.72065 7.23967ZM8.00065 1.33301C4.32065 1.33301 1.33398 4.31967 1.33398 7.99967C1.33398 11.6797 4.32065 14.6663 8.00065 14.6663C11.6807 14.6663 14.6673 11.6797 14.6673 7.99967C14.6673 4.31967 11.6807 1.33301 8.00065 1.33301ZM8.00065 13.333C5.06065 13.333 2.66732 10.9397 2.66732 7.99967C2.66732 5.05967 5.06065 2.66634 8.00065 2.66634C10.9407 2.66634 13.334 5.05967 13.334 7.99967C13.334 10.9397 10.9407 13.333 8.00065 13.333Z" fill="#121314"/>
</g>
<defs>
<clipPath id="clip0_72_2805">
<rect width="16" height="16" fill="white"/>
</clipPath>
</defs>
</svg>
